<svg width="1093" height="447" viewBox="0 0 1093 447" fill="none" xmlns="http://www.w3.org/2000/svg">
<path fill-rule="evenodd" clip-rule="evenodd" d="M397.985 62.591C479.957 -19.381 612.86 -19.381 694.832 62.5905L745.129 112.887L759.003 99.0133C827.765 30.2516 939.251 30.2517 1008.01 99.013C1076.77 167.775 1076.77 279.26 1008.01 348.022C939.25 416.784 827.766 416.784 759.003 348.022L745.13 334.148L694.833 384.446C612.86 466.418 479.957 466.418 397.985 384.445L347.688 334.149L333.815 348.022C265.052 416.783 153.568 416.784 84.8058 348.022C16.0436 279.26 16.0442 167.776 84.8058 99.0131C153.567 30.2518 265.052 30.2513 333.815 99.0129L347.689 112.887L397.985 62.591ZM379.487 144.686L426.52 191.719L476.816 141.423C515.251 102.988 577.566 102.989 616 141.422L790.802 316.224C842.002 367.423 925.014 367.423 976.214 316.224C1027.41 265.024 1027.41 182.012 976.214 130.812C925.014 79.6119 842.002 79.6117 790.802 130.811L776.928 144.686L823.961 191.719L837.835 177.846C863.059 152.621 903.956 152.621 929.18 177.845C954.404 203.069 954.405 243.966 929.18 269.19C903.956 294.415 863.059 294.414 837.836 269.19L808.062 239.417L663.033 94.3891C598.623 29.9794 494.193 29.9793 429.783 94.3894L379.487 144.686ZM855.76 223.518L869.634 237.391C877.297 245.054 889.72 245.054 897.381 237.392L897.382 237.391C905.044 229.729 905.045 217.307 897.382 209.644C889.719 201.981 877.296 201.981 869.634 209.643L855.76 223.518ZM458.319 223.518L508.615 273.815C529.488 294.688 563.329 294.688 584.202 273.815L634.499 223.518L584.202 173.221C563.329 152.348 529.487 152.349 508.615 173.221L458.319 223.518ZM666.298 255.316L616 305.614C577.565 344.049 515.251 344.048 476.817 305.614L302.016 130.812C250.816 79.6119 167.804 79.612 116.604 130.812C65.4042 182.012 65.4042 265.024 116.604 316.223C167.804 367.423 250.816 367.423 302.016 316.224L315.89 302.35L268.856 255.316L254.983 269.19C229.759 294.414 188.862 294.415 163.638 269.19C138.413 243.966 138.414 203.069 163.638 177.845C188.863 152.62 229.759 152.623 254.982 177.845L284.755 207.619L429.783 352.646C494.193 417.057 598.623 417.058 663.034 352.647L713.331 302.35L666.298 255.316ZM237.058 223.518L223.185 209.644C215.521 201.981 203.098 201.982 195.437 209.643C187.774 217.306 187.774 229.729 195.436 237.391L195.437 237.392C203.098 245.054 215.521 245.054 223.184 237.391L237.058 223.518Z" fill="white"/>
</svg>
