<svg width="20" height="20" viewBox="0 0 20 20" fill="none" xmlns="http://www.w3.org/2000/svg">
<path d="M16.0218 2.26876L16.1324 2.75636L17.5726 2.42948L16.2301 1.81422L16.0218 2.26876ZM16.0208 17.7317L16.2291 18.1862L17.5716 17.5712L16.1315 17.2441L16.0208 17.7317ZM10.3559 10.0003C10.3559 6.46601 12.8248 3.50713 16.1324 2.75636L15.9111 1.78116C12.158 2.63304 9.35592 5.98886 9.35592 10.0003H10.3559ZM16.1315 17.2441C12.8243 16.493 10.3559 13.5343 10.3559 10.0003H9.35592C9.35592 14.0114 12.1575 17.367 15.9101 18.2193L16.1315 17.2441ZM15.8125 17.2771C14.7998 17.7411 13.673 18 12.4844 18V19C13.8196 19 15.0882 18.7089 16.2291 18.1862L15.8125 17.2771ZM12.4844 18C8.0661 18 4.48438 14.4183 4.48438 10H3.48438C3.48438 14.9706 7.51381 19 12.4844 19V18ZM4.48438 10C4.48438 5.58172 8.0661 2 12.4844 2V1C7.51381 1 3.48438 5.02944 3.48438 10H4.48438ZM12.4844 2C13.6733 2 14.8004 2.25905 15.8134 2.7233L16.2301 1.81422C15.089 1.29127 13.82 1 12.4844 1V2Z" fill="currentColor"/>
</svg>
