<svg width="224" height="43" viewBox="-2 -2 228 47" fill="none" xmlns="http://www.w3.org/2000/svg">
<circle cx="21.7891" cy="21.1719" r="21.1719" fill="currentColor"/>
<g clip-path="url(#clip0_777_1062)">
<path d="M72.4934 12.7011C70.6722 10.2753 68.5251 10.0399 67.4063 10.0399C64.1404 10.0399 63.1122 12.0929 63.1122 13.6823C63.1122 14.4282 63.3439 15.1306 64.0934 15.7824C64.8392 16.4811 65.8675 16.8577 67.8263 17.5565C70.2522 18.3965 72.5405 19.2365 74.1263 20.6848C75.5276 21.9448 76.7876 24.0448 76.7876 27.2202C76.7876 33.2885 72.3993 37.4414 65.958 37.4414C60.2156 37.4414 56.8556 33.9402 55.2227 31.5614L59.1909 27.7814C60.6863 30.8155 63.5322 31.9343 65.7263 31.9343C68.4817 31.9343 70.5346 30.2543 70.5346 27.6402C70.5346 26.5214 70.1617 25.6343 69.3217 24.8414C68.1558 23.766 66.2875 23.1613 64.5134 22.5531C62.8804 21.9919 60.918 21.246 59.3322 19.8448C58.3039 18.9577 56.8592 17.2306 56.8592 14.0553C56.8556 9.47871 59.9368 4.90576 66.8451 4.90576C68.8039 4.90576 72.4934 5.27869 75.6688 8.54819L72.4934 12.7011Z" fill="currentColor"/>
<path d="M113.852 21.1953C113.852 30.6707 107.038 37.4378 97.2365 37.4378C87.4353 37.4378 80.6211 30.6707 80.6211 21.1953C80.6211 11.7199 87.4353 4.90576 97.2365 4.90576C107.038 4.90576 113.852 11.7199 113.852 21.1953ZM107.599 21.1953C107.599 14.8953 103.305 10.4129 97.2365 10.4129C91.1682 10.4129 86.874 14.8953 86.874 21.1953C86.874 27.4953 91.1682 31.9307 97.2365 31.9307C103.305 31.9307 107.599 27.4953 107.599 21.1953Z" fill="currentColor"/>
<path d="M125.518 5.60498V25.164C125.518 27.5428 126.31 28.9911 127.013 29.784C127.9 30.8558 129.533 31.9311 131.959 31.9311C134.385 31.9311 136.021 30.8558 136.905 29.784C137.603 28.9911 138.4 27.5428 138.4 25.164V5.60498H144.468V24.6499C144.468 27.5899 144.001 30.577 142.133 32.9594C139.892 35.8994 135.97 37.4418 131.959 37.4418C127.947 37.4418 124.022 35.903 121.785 32.9594C119.916 30.5806 119.449 27.5899 119.449 24.6499V5.60498H125.518Z" fill="currentColor"/>
<path d="M160.575 5.60498C164.869 5.60498 167.063 6.72378 168.511 7.94033C170.89 9.9462 171.593 12.6074 171.593 14.9428C171.593 17.9769 170.38 20.6381 167.95 22.2711C167.157 22.8323 166.035 23.3464 164.543 23.6252L174.25 36.743H166.69L158.793 24.8563C158.536 24.4688 158.098 24.2335 157.635 24.2335V36.743H151.566V5.60498H160.575ZM157.635 19.9357H159.362C160.528 19.9357 165.336 19.7945 165.336 15.2216C165.336 10.6486 160.575 10.5545 159.456 10.5545H157.635V19.9357Z" fill="currentColor"/>
<path d="M223.825 10.8333H212.623V17.7886H223.358V23.0169H212.623V31.5111H223.825V36.7394H206.555V5.60498H223.825V10.8333Z" fill="currentColor"/>
<path d="M198.269 30.7431C196.897 31.5107 195.34 31.9307 193.671 31.9307C188.443 31.9307 183.124 28.1977 183.124 21.2894C183.124 15.547 187.186 10.4129 193.439 10.4129C194.243 10.4129 196.289 10.5396 198.429 11.8068L200.884 6.78491C198.063 5.27507 195.474 4.90576 193.298 4.90576C188.863 4.90576 184.989 6.07163 181.864 9.01164C179.203 11.4846 176.871 15.547 176.871 21.1953C176.871 25.7683 178.272 29.6424 181.864 33.0966C184.478 35.5695 187.791 37.4378 193.251 37.4378C196.47 37.4378 198.874 36.6666 200.713 35.7397L198.269 30.7431Z" fill="currentColor"/>
</g>
<defs>
<clipPath id="clip0_777_1062">
<rect width="168.602" height="32.532" fill="white" transform="translate(55.2227 4.90576)"/>
</clipPath>
</defs>
</svg>
