<svg width="1093" height="447" viewBox="-25 -25 1143 497" fill="none" xmlns="http://www.w3.org/2000/svg">
<path d="M767.35 135.87L693.748 62.2694C612.37 -19.1081 480.43 -19.1081 399.052 62.2699L325.452 135.87M767.35 135.87L800.453 102.766C867.143 36.076 975.27 36.0763 1041.96 102.766C1108.65 169.457 1108.65 277.583 1041.96 344.273C975.27 410.963 867.144 410.963 800.453 344.273L767.35 311.17M767.35 135.87L854.999 223.52M767.35 311.17L693.749 384.771C612.37 466.149 480.43 466.149 399.052 384.77L325.452 311.17M767.35 311.17L679.7 223.52M325.452 311.17L292.349 344.273C225.658 410.963 117.532 410.963 50.8419 344.273C-15.8485 277.583 -15.8482 169.457 50.842 102.766C117.532 36.0763 225.658 36.0759 292.349 102.766L325.452 135.87M325.452 311.17L237.802 223.52M325.452 135.87L413.102 223.52M413.102 223.52L486.702 297.121C519.672 330.091 573.128 330.092 606.099 297.121L679.7 223.52M413.102 223.52L486.702 149.92C519.672 116.949 573.128 116.949 606.099 149.919L679.7 223.52M237.802 223.52L204.699 190.416C186.416 172.134 156.774 172.133 138.492 190.416C120.209 208.699 120.209 238.341 138.492 256.623C156.774 274.906 186.416 274.906 204.699 256.623L237.802 223.52ZM854.999 223.52L888.103 256.623C906.386 274.906 936.028 274.906 954.31 256.623C972.593 238.341 972.593 208.699 954.31 190.416C936.027 172.133 906.385 172.133 888.103 190.416L854.999 223.52Z" stroke="currentColor" stroke-width="50"/>
</svg>
